<svg xmlns="http://www.w3.org/2000/svg" width="430" height="430" fill="none" viewBox="0 0 430 430"><path fill="#ebe6ef" d="M135 30c-11.046 0-20 8.954-20 20v80c0 11.046 8.954 20 20 20h56.667L215 185l23.333-35H295c11.046 0 20-8.954 20-20V50c0-11.046-8.954-20-20-20z"/><path fill="#ebe6ef" d="M115 50c0-11.046 8.954-20 20-20h25c-11.046 0-20 8.954-20 20v80c0 11.046 8.954 20 20 20h-25c-11.046 0-20-8.954-20-20z" opacity=".5" style="mix-blend-mode:multiply"/><path stroke="#121331" stroke-linecap="round" stroke-linejoin="round" stroke-miterlimit="10" stroke-width="7" d="M240 90h-50m25 25V65m-80-35c-11.046 0-20 8.954-20 20v80c0 11.046 8.954 20 20 20h56.667L215 185l23.333-35H295c11.046 0 20-8.954 20-20V50c0-11.046-8.954-20-20-20z"/><path fill="#ffc738" d="M115 305c16.569 0 30-13.431 30-30s-13.431-30-30-30c-16.568 0-30 13.431-30 30s13.432 30 30 30"/><path fill="#4bb3fd" d="M50 365c0-24.853 20.147-45 45-45h40c24.853 0 45 20.147 45 45v15H50z"/><g opacity=".5" style="mix-blend-mode:multiply"><path fill="#ffc738" d="M115 305c16.569 0 30-13.431 30-30s-13.431-30-30-30c-16.568 0-30 13.431-30 30s13.432 30 30 30"/><path fill="#4bb3fd" d="M50 365c0-24.853 20.147-45 45-45h40c24.853 0 45 20.147 45 45v15H50z"/></g><path stroke="#121331" stroke-linecap="round" stroke-linejoin="round" stroke-miterlimit="10" stroke-width="7" d="M115 305c16.569 0 30-13.431 30-30s-13.431-30-30-30c-16.568 0-30 13.431-30 30s13.432 30 30 30"/><path stroke="#121331" stroke-linejoin="round" stroke-width="7" d="M50 365c0-24.853 20.147-45 45-45h40c24.853 0 45 20.147 45 45v15H50z"/><path fill="#ffc738" d="M315 305c16.569 0 30-13.431 30-30s-13.431-30-30-30-30 13.431-30 30 13.431 30 30 30"/><path fill="#4bb3fd" d="M250 365c0-24.853 20.147-45 45-45h40c24.853 0 45 20.147 45 45v15H250z"/><g opacity=".5" style="mix-blend-mode:multiply"><path fill="#ffc738" d="M315 305c16.569 0 30-13.431 30-30s-13.431-30-30-30-30 13.431-30 30 13.431 30 30 30"/><path fill="#4bb3fd" d="M250 365c0-24.853 20.147-45 45-45h40c24.853 0 45 20.147 45 45v15H250z"/></g><path stroke="#121331" stroke-linecap="round" stroke-linejoin="round" stroke-miterlimit="10" stroke-width="7" d="M315 305c16.569 0 30-13.431 30-30s-13.431-30-30-30-30 13.431-30 30 13.431 30 30 30"/><path stroke="#121331" stroke-linejoin="round" stroke-width="7" d="M250 365c0-24.853 20.147-45 45-45h40c24.853 0 45 20.147 45 45v15H250z"/><path fill="#ffc738" d="M215 305c24.853 0 45-20.147 45-45s-20.147-45-45-45-45 20.147-45 45 20.147 45 45 45"/><path fill="#ffc738" d="M243.447 294.87q-1.707.13-3.447.13c-24.853 0-45-20.147-45-45 0-14.062 6.45-26.618 16.553-34.87C188.311 216.89 170 236.307 170 260c0 24.853 20.147 45 45 45a44.8 44.8 0 0 0 28.447-10.13" opacity=".3" style="mix-blend-mode:multiply"/><path stroke="#121331" stroke-linecap="round" stroke-linejoin="round" stroke-miterlimit="10" stroke-width="7" d="M215 305c24.853 0 45-20.147 45-45s-20.147-45-45-45-45 20.147-45 45 20.147 45 45 45"/><path fill="#4bb3fd" d="M125 375c0-30.376 24.624-55 55-55h70c30.376 0 55 24.624 55 55v25H125z"/><path fill="#4bb3fd" d="M180 320c-30.376 0-55 24.624-55 55v25h30v-25c0-30.376 24.624-55 55-55z" opacity=".3" style="mix-blend-mode:multiply"/><path stroke="#121331" stroke-linejoin="round" stroke-width="7" d="M125 375c0-30.376 24.624-55 55-55h70c30.376 0 55 24.624 55 55v25H125z"/></svg>